<svg width="200" height="200" viewBox="0 0 200 200" fill="none" xmlns="http://www.w3.org/2000/svg">
<mask id="mask0" mask-type="alpha" maskUnits="userSpaceOnUse" x="0" y="0" width="200" height="200">
<circle cx="100" cy="100" r="100" fill="#C4C4C4"/>
</mask>
<g mask="url(#mask0)">
<path fill-rule="evenodd" clip-rule="evenodd" d="M100.484 0.000137823C2.51242 0.0890746 -76.95 44.9327 -77 100.161L277.786 99.8389C277.836 44.6101 198.455 -0.0889387 100.484 0.000137823Z" fill="#FECF33"/>
<path fill-rule="evenodd" clip-rule="evenodd" d="M100.302 200C198.274 199.911 277.736 155.394 277.786 99.8389L-77 100.161C-77.0506 155.717 2.331 200.089 100.302 200Z" fill="#EE6723"/>
<path fill-rule="evenodd" clip-rule="evenodd" d="M277.786 99.8389L-77 100.161C-77.0173 119.29 -56.6614 136.126 -23.8486 148.069C8.14134 159.712 51.9689 166.711 100.333 166.666C198.304 166.578 277.752 137.616 277.786 99.8389Z" fill="#F69833"/>
<path fill-rule="evenodd" clip-rule="evenodd" d="M224.635 51.9311C192.645 40.2876 148.817 33.2895 100.453 33.3333C2.48197 33.4225 -76.9658 62.3834 -77 100.161L277.786 99.8389C277.804 80.71 257.448 63.874 224.635 51.9311Z" fill="#FDBD39"/>
</g>
<path d="M129.198 47.073C126.98 46.9941 124.762 47.2397 122.615 47.8021L54.1875 65.6563C48.2931 67.2013 43.2521 71.0213 40.1706 76.2783C37.089 81.5353 36.2185 87.7999 37.75 93.6979L48.4583 134.76C50.0023 140.656 53.8218 145.698 59.0789 148.781C64.336 151.863 70.6013 152.734 76.5 151.203L144.932 133.344C156.453 130.339 163.542 119.047 161.714 107.521H161.948L161.37 105.307L150.656 64.2448C149.4 59.4571 146.634 55.2017 142.769 52.1095C138.903 49.0173 134.145 47.253 129.198 47.0782V47.073ZM129.094 50.599C133.281 50.7421 137.309 52.2348 140.578 54.8545C143.847 57.4742 146.182 61.0804 147.234 65.1354L157.37 103.979L157.943 106.193C160.667 116.609 154.453 127.203 144.036 129.917L75.6042 147.771C73.1333 148.419 70.5589 148.573 68.0284 148.224C65.4979 147.875 63.061 147.031 60.8573 145.739C58.6536 144.448 56.7263 142.734 55.1859 140.696C53.6455 138.659 52.5221 136.337 51.8802 133.865L41.1667 92.8073C40.5182 90.3357 40.3638 87.7605 40.7124 85.2291C41.0609 82.6977 41.9055 80.26 43.1979 78.0557C44.4902 75.8513 46.2048 73.9236 48.2434 72.3831C50.2821 70.8426 52.6047 69.7195 55.0781 69.0782L123.51 51.224C125.332 50.7491 127.212 50.5386 129.094 50.599V50.599ZM127.052 55.9323C124.953 55.9397 122.862 56.1825 120.818 56.6563L60.0781 72.5052C47.4323 76.1823 43.8958 83.0052 46.4115 94.7188L55.5261 129.635C58.0365 140.646 67.4115 145.792 78.2969 142.344L139.036 126.495C150.094 123.87 155.219 115.578 152.703 104.281L143.594 69.3646C141.552 60.6302 135.521 55.9688 127.052 55.9323V55.9323ZM133.563 74.4427C134.117 74.4108 134.665 74.5726 135.114 74.9004C135.562 75.2282 135.883 75.7016 136.021 76.2396L139.266 88.6771L139.318 88.8959C139.401 89.2016 139.423 89.5211 139.382 89.8354C139.34 90.1497 139.236 90.4526 139.076 90.7262C138.916 90.9998 138.703 91.2387 138.449 91.4288C138.196 91.619 137.907 91.7565 137.599 91.8334L119.865 96.4584C119.559 96.542 119.239 96.5638 118.925 96.5223C118.611 96.4809 118.308 96.3771 118.034 96.217C117.761 96.0569 117.522 95.8437 117.332 95.59C117.141 95.3363 117.004 95.0472 116.927 94.7396L113.63 82.0834C113.546 81.7772 113.523 81.4573 113.564 81.1424C113.606 80.8275 113.709 80.524 113.869 80.2497C114.03 79.9755 114.243 79.7361 114.497 79.5456C114.751 79.3552 115.041 79.2175 115.349 79.1407L133.083 74.5157C133.242 74.4751 133.404 74.4507 133.568 74.4427H133.563ZM80.3542 77.8698C81.1242 77.8276 81.8851 78.0536 82.5072 78.5095C83.1292 78.9653 83.574 79.6228 83.7656 80.3698L87.8125 95.8802C87.9267 96.3057 87.9552 96.7497 87.8963 97.1863C87.8373 97.6229 87.6922 98.0434 87.4692 98.4233C87.2463 98.8033 86.95 99.1352 86.5976 99.3996C86.2453 99.664 85.8438 99.8557 85.4167 99.9636L63.6875 105.635C63.262 105.75 62.8181 105.778 62.3815 105.719C61.9449 105.66 61.5244 105.515 61.1444 105.292C60.7644 105.069 60.4326 104.773 60.1682 104.421C59.9037 104.068 59.712 103.667 59.6042 103.24L55.5573 87.7292C55.4423 87.3034 55.4132 86.8589 55.4718 86.4217C55.5303 85.9845 55.6753 85.5634 55.8983 85.1828C56.1213 84.8022 56.4179 84.4699 56.7707 84.2051C57.1235 83.9403 57.5254 83.7485 57.9531 83.6407L79.6823 77.974C79.9039 77.9163 80.1307 77.8814 80.3594 77.8698H80.3542ZM110.87 85.5052L111.771 88.9584L90.3125 91.4375L89.4063 87.9844L110.87 85.5052ZM115.547 98.7448C116.5 99.5104 117.682 99.9792 118.922 100.057L110.745 112.359C110.306 111.922 109.784 111.577 109.21 111.345C108.635 111.112 108.021 110.997 107.401 111.005L115.547 98.7448ZM86.2448 103.401L96.8281 113.609L94.1198 114.318C93.7168 114.429 93.3312 114.595 92.974 114.813L82.2344 104.448L86.2448 103.401ZM107.411 114.531C107.664 114.516 107.914 114.59 108.118 114.739C108.323 114.888 108.469 115.104 108.531 115.349L110.797 124.042C110.838 124.181 110.849 124.328 110.832 124.472C110.814 124.616 110.767 124.755 110.694 124.881C110.621 125.007 110.523 125.116 110.407 125.203C110.29 125.29 110.157 125.352 110.016 125.385L97.8386 128.563C97.6986 128.602 97.5521 128.613 97.4078 128.594C97.2636 128.576 97.1246 128.528 96.9994 128.454C96.8742 128.38 96.7654 128.281 96.6796 128.164C96.5937 128.046 96.5326 127.913 96.5 127.771L94.2292 119.083C94.1886 118.943 94.1769 118.797 94.1949 118.652C94.2128 118.508 94.26 118.368 94.3336 118.242C94.4072 118.117 94.5056 118.007 94.6229 117.921C94.7401 117.834 94.8738 117.773 95.0156 117.74L107.193 114.563C107.264 114.545 107.338 114.534 107.411 114.531V114.531Z" fill="white"/>
</svg>
